<mxfile host="app.diagrams.net" modified="2023-10-24T13:44:51.302Z" agent="Mozilla/5.0 (Macintosh; Intel Mac OS X 10.15; rv:109.0) Gecko/20100101 Firefox/118.0" etag="TiyjYnL3SvY1HHsg-AnQ" version="22.0.6" type="device">
  <diagram name="Page-1" id="H0dPYtw59YJ4_eIlGD9-">
    <mxGraphModel dx="748" dy="543" grid="1" gridSize="10" guides="1" tooltips="1" connect="1" arrows="1" fold="1" page="1" pageScale="1" pageWidth="850" pageHeight="1100" math="0" shadow="0">
      <root>
        <mxCell id="0" />
        <mxCell id="1" parent="0" />
        <mxCell id="T3UfxBPy3lbP1vf4V8W1-8" value="" style="edgeStyle=orthogonalEdgeStyle;rounded=0;orthogonalLoop=1;jettySize=auto;html=1;" edge="1" parent="1" source="T3UfxBPy3lbP1vf4V8W1-1" target="T3UfxBPy3lbP1vf4V8W1-7">
          <mxGeometry relative="1" as="geometry" />
        </mxCell>
        <mxCell id="T3UfxBPy3lbP1vf4V8W1-1" value="Git Repo on local Machine" style="whiteSpace=wrap;html=1;aspect=fixed;fillColor=#1F80FF;strokeColor=#6c8ebf;gradientColor=none;fillStyle=solid;" vertex="1" parent="1">
          <mxGeometry x="40" y="40" width="90" height="90" as="geometry" />
        </mxCell>
        <mxCell id="T3UfxBPy3lbP1vf4V8W1-10" value="" style="edgeStyle=orthogonalEdgeStyle;rounded=0;orthogonalLoop=1;jettySize=auto;html=1;" edge="1" parent="1" source="T3UfxBPy3lbP1vf4V8W1-7" target="T3UfxBPy3lbP1vf4V8W1-9">
          <mxGeometry relative="1" as="geometry" />
        </mxCell>
        <mxCell id="T3UfxBPy3lbP1vf4V8W1-7" value="Gitlab Repo Hosted on gitlab.com" style="whiteSpace=wrap;html=1;aspect=fixed;fillColor=#1F80FF;strokeColor=#6c8ebf;gradientColor=none;fillStyle=solid;" vertex="1" parent="1">
          <mxGeometry x="40" y="210" width="90" height="90" as="geometry" />
        </mxCell>
        <mxCell id="T3UfxBPy3lbP1vf4V8W1-13" style="edgeStyle=none;rounded=0;orthogonalLoop=1;jettySize=auto;html=1;exitX=1;exitY=0.5;exitDx=0;exitDy=0;entryX=1;entryY=0.5;entryDx=0;entryDy=0;" edge="1" parent="1" source="T3UfxBPy3lbP1vf4V8W1-9" target="T3UfxBPy3lbP1vf4V8W1-11">
          <mxGeometry relative="1" as="geometry">
            <mxPoint x="520" y="340" as="targetPoint" />
            <Array as="points">
              <mxPoint x="490" y="218" />
              <mxPoint x="490" y="328" />
            </Array>
          </mxGeometry>
        </mxCell>
        <mxCell id="T3UfxBPy3lbP1vf4V8W1-9" value="&lt;div style=&quot;line-height: 130%;&quot; align=&quot;center&quot;&gt;Gitlab Runner Hosted in a VM on my proxmox server. &lt;/div&gt;" style="whiteSpace=wrap;html=1;aspect=fixed;fillColor=#1F80FF;strokeColor=#6c8ebf;gradientColor=none;fillStyle=solid;align=center;" vertex="1" parent="1">
          <mxGeometry x="270" y="125" width="185" height="185" as="geometry" />
        </mxCell>
        <mxCell id="T3UfxBPy3lbP1vf4V8W1-15" value="" style="edgeStyle=none;rounded=0;orthogonalLoop=1;jettySize=auto;html=1;" edge="1" parent="1" source="T3UfxBPy3lbP1vf4V8W1-11" target="T3UfxBPy3lbP1vf4V8W1-14">
          <mxGeometry relative="1" as="geometry">
            <Array as="points">
              <mxPoint x="363" y="450" />
            </Array>
          </mxGeometry>
        </mxCell>
        <mxCell id="T3UfxBPy3lbP1vf4V8W1-11" value="Ansible control node in a Docker Image" style="whiteSpace=wrap;html=1;aspect=fixed;fillColor=#009130;strokeColor=#82b366;fillStyle=solid;align=center;" vertex="1" parent="1">
          <mxGeometry x="280" y="250" width="155" height="155" as="geometry" />
        </mxCell>
        <mxCell id="T3UfxBPy3lbP1vf4V8W1-14" value="DNS Server" style="whiteSpace=wrap;html=1;aspect=fixed;fillColor=#009130;strokeColor=#82b366;fillStyle=solid;align=center;" vertex="1" parent="1">
          <mxGeometry x="480" y="370" width="155" height="155" as="geometry" />
        </mxCell>
        <mxCell id="T3UfxBPy3lbP1vf4V8W1-16" value="&lt;font style=&quot;font-size: 25px;&quot;&gt;1&lt;/font&gt;" style="text;strokeColor=none;align=center;fillColor=none;html=1;verticalAlign=middle;whiteSpace=wrap;rounded=0;" vertex="1" parent="1">
          <mxGeometry x="90" y="150" width="60" height="30" as="geometry" />
        </mxCell>
        <mxCell id="T3UfxBPy3lbP1vf4V8W1-17" value="&lt;font style=&quot;font-size: 25px;&quot;&gt;2&lt;/font&gt;" style="text;strokeColor=none;align=center;fillColor=none;html=1;verticalAlign=middle;whiteSpace=wrap;rounded=0;" vertex="1" parent="1">
          <mxGeometry x="170" y="270" width="60" height="30" as="geometry" />
        </mxCell>
        <mxCell id="T3UfxBPy3lbP1vf4V8W1-19" value="&lt;font style=&quot;font-size: 25px;&quot;&gt;4&lt;/font&gt;" style="text;strokeColor=none;align=center;fillColor=none;html=1;verticalAlign=middle;whiteSpace=wrap;rounded=0;" vertex="1" parent="1">
          <mxGeometry x="490" y="260" width="60" height="30" as="geometry" />
        </mxCell>
        <mxCell id="T3UfxBPy3lbP1vf4V8W1-20" value="&lt;font style=&quot;font-size: 25px;&quot;&gt;5&lt;/font&gt;" style="text;strokeColor=none;align=center;fillColor=none;html=1;verticalAlign=middle;whiteSpace=wrap;rounded=0;" vertex="1" parent="1">
          <mxGeometry x="365" y="460" width="60" height="30" as="geometry" />
        </mxCell>
      </root>
    </mxGraphModel>
  </diagram>
</mxfile>
